<svg id="Layer_1" data-name="Layer 1" xmlns="http://www.w3.org/2000/svg" viewBox="0 0 35.75 23.89"><defs><style>.cls-1{fill:#1d1d1b;fill-rule:evenodd;}</style></defs><path class="cls-1" d="M2.48,20.29a5.4,5.4,0,0,1,1.6-.91c8-3.19,16-6.35,24-9.59,3.05-1.24,6-2.67,9-4a.6.6,0,0,0,.13-.09h.1a.64.64,0,0,1,0,.24c-.41,1-.78,2-1.25,2.94a4,4,0,0,1-2.35,2q-4.65,1.66-9.33,3.29C17.87,16.48,11.31,18.73,4.76,21a3.53,3.53,0,0,0-.83.4,1.13,1.13,0,0,0-.36,1.69,3.33,3.33,0,0,0,.56.63l6.19,5.66a2.29,2.29,0,0,0,.23.17l-.19,0H7.72a.26.26,0,0,1-.29-.19,3,3,0,0,0-.77-1.15C5.52,27.13,4.4,26,3.25,24.91a4.64,4.64,0,0,1-1.63-2.48v-.61A2.71,2.71,0,0,1,2.48,20.29Z" transform="translate(-1.62 -5.69)"/><path class="cls-1" d="M16.71,20l-4.87,1.27c-.35.1-.42.25-.22.58L8,22.82l-2.9.74a.33.33,0,0,1-.39-.09c-.13-.14-.29-.26-.43-.4a.75.75,0,0,1,.18-1.24,3.58,3.58,0,0,1,.64-.26q13-4.18,26-8.37c1.16-.37,2.3-.82,3.45-1.23l.26-.09c0,.06,0,.09,0,.11A12.88,12.88,0,0,1,33,15a3.92,3.92,0,0,1-2.1,1.31Z" transform="translate(-1.62 -5.69)"/><path class="cls-1" d="M15.2,23.3l-.1,0c-.35.08-.41.25-.17.57l-1.29.25-6.5,1.21a.51.51,0,0,1-.51-.13c-.43-.42-.88-.81-1.36-1.25l26.52-6.68.05.06c0,.07-.06.14-.1.2-.52.71-1,1.45-1.56,2.14a3.54,3.54,0,0,1-2.29,1.21Z" transform="translate(-1.62 -5.69)"/><path class="cls-1" d="M19,25.65c-.4.06-.46.17-.3.55l-2.21.28-5.16.64-2.13.26A.35.35,0,0,1,9,27.31c-.56-.49-1.1-1-1.66-1.49l0-.08,21.26-3.9a1.43,1.43,0,0,1-.14.22c-.55.6-1.08,1.22-1.66,1.8a4.21,4.21,0,0,1-2.5,1.05C22.49,25.14,20.76,25.4,19,25.65Z" transform="translate(-1.62 -5.69)"/><path class="cls-1" d="M10.47,27.67,16,27l3.32-.38a.54.54,0,0,1,.31.05q2.28,1.38,4.55,2.77s0,0,.13.1H11.72a.67.67,0,0,1-.48-.18c-.56-.53-1.14-1-1.76-1.61Z" transform="translate(-1.62 -5.69)"/></svg>