<svg id="Layer_1" data-name="Layer 1" xmlns="http://www.w3.org/2000/svg" viewBox="0 0 36.27 36.27"><defs><style>.cls-1{fill:#1d1d1b;}</style></defs><path class="cls-1" d="M32,32.41a17.37,17.37,0,0,1-24.55,0,17.37,17.37,0,0,1,0-24.55A17.35,17.35,0,0,1,32,7.86a17.58,17.58,0,0,1,5.09,12.27A17.6,17.6,0,0,1,32,32.41Zm.55-25.1a18.14,18.14,0,0,0-25.65,0A18.39,18.39,0,0,0,1.57,20.13,18.15,18.15,0,0,0,19.71,38.27,18.15,18.15,0,0,0,37.84,20.13,18.39,18.39,0,0,0,32.53,7.31Z" transform="translate(-1.57 -2)"/><polygon class="cls-1" points="17.14 17.56 17.14 18.71 18.13 19.28 19.13 18.71 19.13 17.56 18.13 16.98 17.14 17.56 17.14 17.56"/><path class="cls-1" d="M20.57,16.8V14.35a.86.86,0,0,0-.25-.61.88.88,0,0,0-1.23,0,.86.86,0,0,0-.25.61V16.8l.87.5.86-.5Z" transform="translate(-1.57 -2)"/><path class="cls-1" d="M14.27,22.27a.87.87,0,0,0,.2,1.59.85.85,0,0,0,.66-.09l2.12-1.22v-1l-.87-.5-2.11,1.22Z" transform="translate(-1.57 -2)"/><path class="cls-1" d="M25.14,22.27h0L23,21.05l-.87.5v1l2.12,1.22a.85.85,0,0,0,.66.09.88.88,0,0,0,.52-.4.85.85,0,0,0,.09-.66.9.9,0,0,0-.41-.53Z" transform="translate(-1.57 -2)"/><path class="cls-1" d="M32.23,27.54a.18.18,0,0,1-.16,0l-3.81-.71a.38.38,0,0,1-.24-.13.5.5,0,0,1-.11-.26,1.38,1.38,0,0,0-.3-.75,1.46,1.46,0,0,0-.68-.44,1.36,1.36,0,0,0-.8,0,3.58,3.58,0,0,1-1.45.18A3.54,3.54,0,0,1,23.29,25l-1.13-.65V31.8H20.57V23.47l-.86-.5-.87.5V31.8H17.25V24.39L16.12,25a3.54,3.54,0,0,1-1.39.44,3.58,3.58,0,0,1-1.45-.18,1.36,1.36,0,0,0-.8,0,1.46,1.46,0,0,0-.68.44,1.38,1.38,0,0,0-.3.75.5.5,0,0,1-.11.26.38.38,0,0,1-.24.13l-3.81.71a.22.22,0,0,1-.16,0,.24.24,0,0,1-.12-.1.32.32,0,0,1,0-.16.26.26,0,0,1,.07-.15l2.52-2.95a.44.44,0,0,1,.51-.11,1.32,1.32,0,0,0,1.52-.25,1.3,1.3,0,0,0,.38-.71,3.47,3.47,0,0,1,.57-1.34,3.42,3.42,0,0,1,1.08-1l1.13-.65-6.42-3.7.79-1.38,7.21,4.17.87-.5v-1L10,13.55l.79-1.38,6.42,3.71v-1.3A3.38,3.38,0,0,1,18.44,12a1.36,1.36,0,0,0,.43-.69,1.29,1.29,0,0,0-.05-.8,1.35,1.35,0,0,0-.49-.64.41.41,0,0,1-.17-.22.39.39,0,0,1,0-.28l1.28-3.65a.27.27,0,0,1,.1-.13.3.3,0,0,1,.16,0,.27.27,0,0,1,.15,0,.22.22,0,0,1,.1.13l1.29,3.65a.45.45,0,0,1,0,.28.41.41,0,0,1-.17.22,1.35,1.35,0,0,0-.49.64A1.32,1.32,0,0,0,21,12a3.38,3.38,0,0,1,1.19,2.59v1.3l6.42-3.71.79,1.38-7.21,4.16v1l.87.5,7.21-4.17L31,16.43l-6.41,3.7,1.12.65a3.42,3.42,0,0,1,1.08,1,3.32,3.32,0,0,1,.57,1.34,1.37,1.37,0,0,0,.38.71,1.32,1.32,0,0,0,1.52.25.44.44,0,0,1,.51.11l2.52,2.95a.26.26,0,0,1,.07.15.32.32,0,0,1,0,.16.24.24,0,0,1-.12.1ZM30.6,9.24a15.41,15.41,0,0,0-21.79,0A15.4,15.4,0,0,0,8.81,31,15.41,15.41,0,0,0,30.6,31a15.4,15.4,0,0,0,0-21.78Z" transform="translate(-1.57 -2)"/></svg>